<svg id="ev8qs5apTj01" xmlns="http://www.w3.org/2000/svg" xmlns:xlink="http://www.w3.org/1999/xlink" viewBox="0 0 200 200" shape-rendering="geometricPrecision" text-rendering="geometricPrecision"><defs><filter id="ev8qs5apTj05-filter" x="-150%" width="400%" y="-150%" height="400%"><feGaussianBlur id="ev8qs5apTj05-filter-drop-shadow-0-blur" in="SourceAlpha" stdDeviation="8,6"/><feOffset id="ev8qs5apTj05-filter-drop-shadow-0-offset" dx="6" dy="4" result="tmp"/><feFlood id="ev8qs5apTj05-filter-drop-shadow-0-flood" flood-color="#000"/><feComposite id="ev8qs5apTj05-filter-drop-shadow-0-composite" operator="in" in2="tmp"/><feMerge id="ev8qs5apTj05-filter-drop-shadow-0-merge" result="result"><feMergeNode id="ev8qs5apTj05-filter-drop-shadow-0-merge-node-1"/><feMergeNode id="ev8qs5apTj05-filter-drop-shadow-0-merge-node-2" in="SourceGraphic"/></feMerge></filter><filter id="ev8qs5apTj09-filter" x="-150%" width="400%" y="-150%" height="400%"><feGaussianBlur id="ev8qs5apTj09-filter-drop-shadow-0-blur" in="SourceAlpha" stdDeviation="2,1"/><feOffset id="ev8qs5apTj09-filter-drop-shadow-0-offset" dx="1" dy="1" result="tmp"/><feFlood id="ev8qs5apTj09-filter-drop-shadow-0-flood" flood-color="#000"/><feComposite id="ev8qs5apTj09-filter-drop-shadow-0-composite" operator="in" in2="tmp"/><feMerge id="ev8qs5apTj09-filter-drop-shadow-0-merge" result="result"><feMergeNode id="ev8qs5apTj09-filter-drop-shadow-0-merge-node-1"/><feMergeNode id="ev8qs5apTj09-filter-drop-shadow-0-merge-node-2" in="SourceGraphic"/></feMerge></filter></defs><circle r="90" transform="matrix(-1 0 0-1 100 99)" fill="#007bff"/><g><g><path d="M51.0303,44.61957h97.9394c5.40904,0,9.79394,3.79585,9.79394,8.47826v42.3913c0,4.68241-4.3849,8.47826-9.79394,8.47826h-58.76364L70.61818,122.96196v-18.99457h-19.58788c-5.40904,0-9.79394-3.79585-9.79394-8.47826v-42.3913c0-4.68241,4.3849-8.47826,9.79394-8.47826Z" transform="translate(0-2)" filter="url(#ev8qs5apTj05-filter)" fill="#fff"/></g></g><text dx="0" dy="0" font-family="&quot;Verdana&quot;" font-size="24" font-weight="700" transform="matrix(.840996 0 0 0.912216 50.945276 78.180386)" fill="#007bff"><tspan font-family="&quot;Verdana&quot;" font-size="24" font-weight="700" font-style="normal" transform="translate(100 85)" fill="#007bff"><![CDATA[
VibrChat
]]></tspan></text><g><text dx="0" dy="0" font-family="&quot;Verdana&quot;" font-size="18" font-weight="700" font-style="italic" transform="matrix(1.620256 0 0 1.635163 63.854719 157.163531)" filter="url(#ev8qs5apTj09-filter)" fill="#fff"><tspan y="0" font-weight="700"><![CDATA[
chat
]]></tspan></text></g></svg>
