<svg xmlns="http://www.w3.org/2000/svg" enable-background="new 0 0 66 66" viewBox="0 0 66 66"><path fill="#d6d4d2" d="M14.5 64.8l-4.5-2.6c-.6-.4-1-1.1-1-2.2l4.5 2.6C13.4 63.6 13.8 64.4 14.5 64.8zM33.4 1.2L38 3.9c-.6-.4-1.5-.3-2.5.2l-4.5-2.6C31.9.9 32.8.9 33.4 1.2z"/><polygon fill="#c4c2c0" points="13.4 62.5 8.9 59.9 8.8 18.3 13.3 20.9"/><polygon fill="#c4c2c0" points="16.8 14.9 12.2 12.3 30.9 1.5 35.5 4.1"/><path fill="#d6d4d2" d="M13.3,20.9l-4.5-2.6c0-2.2,1.5-4.9,3.5-6l4.5,2.6C14.9,16,13.3,18.7,13.3,20.9z"/><path fill="#434240" d="M35.5,4.1C37.4,3,39,3.9,39,6.1l0.1,41.6c0,2.2-1.5,4.9-3.5,6L16.9,64.5c-1.9,1.1-3.5,0.2-3.5-2
													l-0.1-41.6c0-2.2,1.5-4.9,3.5-6L35.5,4.1z"/><path fill="#fff" d="M37.6,48.4c0,0.5-0.4,1.2-0.9,1.5L15.8,62c-0.5,0.3-0.9,0.1-0.9-0.5l-0.1-41.3
											c0-0.5,0.4-1.2,0.9-1.5l21-12.1c0.5-0.3,0.9-0.1,0.9,0.5L37.6,48.4z"/><path fill="#7e8a8c" d="M17.6 14.9c.5-.3.9-.1.9.5 0 .6-.4 1.2-.9 1.5-.5.3-.9.1-.9-.5C16.8 15.9 17.2 15.2 17.6 14.9zM20.7 13.8c.2-.1.3 0 .3.2 0 .2-.1.5-.3.6-.2.1-.3 0-.3-.2C20.3 14.2 20.5 13.9 20.7 13.8zM22.9 12.5c.2-.1.3 0 .3.2 0 .2-.1.5-.3.6-.2.1-.3 0-.3-.2C22.6 12.9 22.7 12.6 22.9 12.5z"/><path fill="#e9e8e6" d="M32,3.6c-0.7-0.4-1.9-0.4-2.6,0c-0.6,0.4-0.7,0.9-0.2,1.3c0.1-0.1,0.1-0.1,0.2-0.2
									c0.7-0.4,1.9-0.4,2.6,0c0.1,0.1,0.2,0.1,0.2,0.2C32.7,4.5,32.6,4,32,3.6z"/><path fill="#434240" d="M29.4,4.8c-0.1,0.1-0.2,0.1-0.2,0.2c0.1,0.1,0.1,0.1,0.2,0.2c0.7,0.4,1.9,0.4,2.6,0
									c0.1,0,0.2-0.1,0.2-0.2v0c-0.1-0.1-0.2-0.1-0.2-0.2C31.3,4.4,30.1,4.4,29.4,4.8z"/><path fill="#494846" d="M10.6,21.9l-0.9,0.5c0.2-0.1,0.6-0.1,0.9,0.1l0.9-0.5C11.2,21.7,10.8,21.7,10.6,21.9z"/><path fill="#383736" d="M11.6,25.6l0.9-0.5c0.2-0.1,0.4-0.4,0.4-0.9c0-0.8-0.6-1.9-1.3-2.3l-0.9,0.5
											c0.7,0.4,1.3,1.5,1.3,2.3C12,25.2,11.9,25.5,11.6,25.6z"/><path fill="#494846" d="M11.6,25.6l0.9-0.5c0.2-0.1,0.4-0.4,0.4-0.9L12,24.8C12,25.2,11.9,25.5,11.6,25.6z"/><path fill="#21201f" d="M10.7,22.5c-0.7-0.4-1.3-0.1-1.3,0.8c0,0.8,0.6,1.9,1.3,2.3c0.7,0.4,1.3,0.1,1.3-0.8
											C12,23.9,11.4,22.9,10.7,22.5z"/><g><path fill="#494846" d="M10.6,26.3l-0.9,0.5c0.2-0.1,0.6-0.1,0.9,0.1l0.9-0.5C11.2,26.1,10.8,26.1,10.6,26.3z"/><path fill="#383736" d="M11.6,30l0.9-0.5c0.2-0.1,0.4-0.4,0.4-0.9c0-0.8-0.6-1.9-1.3-2.3l-0.9,0.5c0.7,0.4,1.3,1.5,1.3,2.3
											C12,29.6,11.9,29.9,11.6,30z"/><path fill="#494846" d="M11.6,30l0.9-0.5c0.2-0.1,0.4-0.4,0.4-0.9L12,29.2C12,29.6,11.9,29.9,11.6,30z"/><path fill="#21201f" d="M10.7,26.9c-0.7-0.4-1.3-0.1-1.3,0.8c0,0.8,0.6,1.9,1.3,2.3c0.7,0.4,1.3,0.1,1.3-0.8
											C12,28.3,11.4,27.3,10.7,26.9z"/></g><g><polygon fill="#e9e8e6" points="35.4 29.2 17 39.8 17 42.7 35.4 32.1"/><polygon fill="#e9e8e6" points="35.4 41.8 17 52.4 17.1 55.3 35.4 44.7"/><polygon fill="#e9e8e6" points="35.4 35.5 17 46.1 17 49 35.4 38.4"/><polygon fill="#e9e8e6" points="35.4 22.9 17 33.5 17 36.4 35.4 25.8"/></g><g><path fill="#f25a5a" d="M37.5 30.9l-2-1.2c2.7-2.4 3.7-4.5 4.1-5.7l2 1.2C41.2 26.4 40.3 28.5 37.5 30.9zM53 4.5l2 1.2c-1.7-1-4.1-.8-6.8.8l-2-1.2C48.9 3.7 51.3 3.5 53 4.5z"/><path fill="#dd4a4a" d="M41.4,25.1l-2-1.2c-1.3-0.8-2.1-2.3-2.1-4.5c0-4.9,4-11.2,9-14.1l2,1.2c-5,2.9-9,9.2-9,14.1
					C39.3,22.8,40.1,24.3,41.4,25.1z"/><path fill="#cc4848" d="M48.2,6.5c4.9-2.9,9-1.2,9,3.7s-4,11.2-8.9,14.1c-1.3,0.7-2.5,1.2-3.6,1.3c-1.5,1.9-3.4,3.3-4.9,4.2
					c-1.3,0.7-2.1,1.1-2.2,1.1c2.7-2.4,3.7-4.5,4.1-5.7c-1.5-0.7-2.3-2.3-2.3-4.6C39.2,15.7,43.3,9.4,48.2,6.5z"/></g><g><path fill="#b2b0af" d="M43.6 18.4l.6.3c.1 0 .1.1.1.2 0 .2-.1.3-.2.5l-.6-.3c.1-.2.2-.4.2-.5C43.7 18.5 43.7 18.5 43.6 18.4zM44.5 17.3l.6.3c-.1-.1-.3-.1-.5-.1L44 17.2C44.1 17.1 44.3 17.2 44.5 17.3zM41.9 20.3L41.4 20c.2.1.4 0 .7 0 .3-.1.5-.2.8-.3.3-.2.5-.3.7-.5l.6.3c-.1.2-.4.4-.7.5-.3.2-.5.3-.8.3C42.4 20.4 42.1 20.4 41.9 20.3z"/><polygon fill="#b2b0af" points="41.6 21.4 41 21.1 41.4 20 41.9 20.3"/><path fill="#b2b0af" d="M42.9 17.9l-.6-.3c.2 0 .4-.1.7-.2.3-.1.6-.2.8-.2l.6.3c-.2 0-.5.1-.8.2C43.3 17.8 43.1 17.9 42.9 17.9zM44.4 15.2l-.6-.3c.3-.1.5-.1.7-.1l.6.3C44.9 15.1 44.7 15.1 44.4 15.2z"/><path fill="#b2b0af" d="M42.8 17.8l-.6-.3c0 0 .1 0 .1 0l.6.3C42.9 17.9 42.8 17.9 42.8 17.8zM42 19l-.6-.3c0 0-.1 0-.1-.1L42 19C41.9 19 42 19 42 19zM43.6 15.6L43 15.3c.3-.2.6-.3.8-.4l.6.3C44.1 15.3 43.8 15.4 43.6 15.6z"/><path fill="#b2b0af" d="M41.9,18.9l-0.6-0.3c-0.2-0.1-0.2-0.3-0.2-0.7c0-0.3,0.1-0.6,0.2-0.9l0.6,0.3c-0.1,0.3-0.2,0.6-0.2,0.9
					C41.7,18.6,41.7,18.8,41.9,18.9z"/><path fill="#fff" d="M43.6,15.6c0.3-0.2,0.6-0.3,0.8-0.4c0.3-0.1,0.5-0.1,0.7-0.1l-0.3,1.1c-0.4,0-0.8,0.1-1.2,0.3
					c-0.3,0.2-0.5,0.3-0.6,0.5c-0.1,0.2-0.2,0.4-0.2,0.5c0,0.2,0.1,0.3,0.2,0.2c0.2,0,0.4-0.1,0.7-0.2c0.3-0.1,0.6-0.2,0.8-0.2
					c0.2,0,0.4,0,0.6,0.1c0.2,0.1,0.2,0.3,0.2,0.7c0,0.3-0.1,0.6-0.2,0.9c-0.1,0.3-0.4,0.6-0.6,0.9c-0.3,0.3-0.6,0.6-1,0.8
					c-0.4,0.2-0.7,0.3-1,0.4c-0.3,0.1-0.6,0.1-0.8,0l0.3-1.1c0.2,0.1,0.4,0,0.7,0c0.3-0.1,0.5-0.2,0.8-0.3c0.3-0.2,0.5-0.3,0.7-0.5
					c0.1-0.2,0.2-0.4,0.2-0.5c0-0.1,0-0.2-0.1-0.2c-0.1,0-0.2,0-0.3,0c-0.1,0-0.3,0.1-0.5,0.1C43,19,42.7,19,42.5,19.1
					c-0.2,0-0.4,0-0.6-0.1c-0.2-0.1-0.2-0.3-0.2-0.7c0-0.3,0.1-0.6,0.2-0.9c0.1-0.3,0.4-0.6,0.6-0.9C42.8,16.1,43.1,15.8,43.6,15.6z
					"/><path fill="#b2b0af" d="M41.9,17.3L41.3,17c0.1-0.3,0.4-0.6,0.6-0.9c0.3-0.3,0.6-0.6,1-0.8l0.6,0.3c-0.4,0.2-0.8,0.5-1,0.8
					C42.2,16.7,42,17,41.9,17.3z"/><polygon fill="#b2b0af" points="50.1 17 49.5 16.7 49.5 13.6 50.1 14"/><polygon fill="#b2b0af" points="48.5 16 48 15.7 49.6 11.5 50.2 11.8"/><polygon fill="#b2b0af" points="50.2 11.8 49.6 11.5 50.5 11 51 11.4"/><polygon fill="#b2b0af" points="48.3 17.5 47.7 17.2 46.4 15.5 47 15.8"/><polygon fill="#b2b0af" points="46 14.3 45.4 13.9 46.3 13.4 46.9 13.8"/><polygon fill="#b2b0af" points="46 19.4 45.5 19.1 45.4 13.9 46 14.3"/><polygon fill="#fff" points="51 11.4 51.1 16.5 50.1 17 50.1 14 48.8 17.3 48.3 17.5 47 15.8 47 18.8 46 19.4 46 14.3 46.9 13.8 48.5 16 50.2 11.8"/><path fill="#b2b0af" d="M53.8 12.6l.6.3c.1 0 .1.1.1.2 0 .2-.1.3-.2.5l-.6-.3c.1-.2.2-.4.2-.5C53.9 12.7 53.9 12.6 53.8 12.6zM54.6 11.4l.6.3c-.1-.1-.3-.1-.5-.1l-.6-.3C54.3 11.3 54.5 11.3 54.6 11.4z"/><polygon fill="#b2b0af" points="51.8 15.6 51.2 15.2 51.5 14.1 52.1 14.5"/><path fill="#b2b0af" d="M52.1 14.5l-.6-.3c.2.1.4 0 .7 0 .3-.1.5-.2.8-.3.3-.2.5-.3.6-.5l.6.3c-.1.2-.4.4-.6.5-.3.2-.5.3-.8.3C52.5 14.5 52.3 14.5 52.1 14.5zM53.1 12l-.6-.3c.2 0 .4-.1.7-.2.3-.1.6-.2.8-.2l.6.3c-.2 0-.5.1-.8.2C53.5 11.9 53.3 12 53.1 12zM54.6 9.3L54 9c.3-.1.5-.1.7-.1l.6.3C55.1 9.2 54.8 9.3 54.6 9.3z"/><path fill="#b2b0af" d="M53 12l-.6-.3c0 0 .1 0 .1 0l.6.3C53 12 53 12 53 12zM52.1 13.1l-.6-.3c0 0 0 0-.1 0L52.1 13.1C52.1 13.1 52.1 13.1 52.1 13.1zM53.7 9.7l-.6-.3C53.4 9.2 53.7 9.1 54 9l.6.3C54.3 9.4 54 9.5 53.7 9.7z"/><path fill="#fff" d="M53.7,9.7c0.3-0.2,0.6-0.3,0.8-0.4c0.3-0.1,0.5-0.1,0.7-0.1L55,10.3c-0.4,0-0.8,0.1-1.2,0.3
					c-0.3,0.2-0.5,0.3-0.6,0.5c-0.1,0.2-0.2,0.4-0.2,0.5c0,0.2,0.1,0.3,0.2,0.3c0.2,0,0.4-0.1,0.7-0.2c0.3-0.1,0.6-0.2,0.8-0.2
					c0.2,0,0.4,0,0.6,0.1c0.2,0.1,0.2,0.3,0.2,0.7c0,0.3-0.1,0.6-0.2,0.9c-0.1,0.3-0.4,0.6-0.6,0.9c-0.3,0.3-0.6,0.6-1,0.8
					c-0.4,0.2-0.7,0.3-1,0.4c-0.3,0.1-0.6,0.1-0.8,0l0.3-1.1c0.2,0.1,0.4,0,0.7,0c0.3-0.1,0.5-0.2,0.8-0.3c0.3-0.2,0.5-0.3,0.6-0.5
					c0.1-0.2,0.2-0.4,0.2-0.5c0-0.1,0-0.2-0.1-0.2c-0.1,0-0.2,0-0.3,0c-0.1,0-0.3,0.1-0.5,0.1c-0.3,0.1-0.6,0.2-0.8,0.2
					c-0.2,0-0.4,0-0.6-0.1c-0.2-0.1-0.2-0.3-0.2-0.7c0-0.3,0.1-0.6,0.2-0.9c0.1-0.3,0.4-0.6,0.6-0.9C53,10.2,53.3,9.9,53.7,9.7z"/><path fill="#b2b0af" d="M52.1,13.1l-0.6-0.3c-0.2-0.1-0.2-0.3-0.2-0.7c0-0.3,0.1-0.6,0.2-0.9c0.1-0.3,0.4-0.6,0.6-0.9
					c0.3-0.3,0.6-0.6,1-0.8l0.6,0.3c-0.4,0.2-0.8,0.5-1,0.8c-0.3,0.3-0.5,0.6-0.6,0.9c-0.1,0.3-0.2,0.6-0.2,0.9
					C51.8,12.7,51.9,13,52.1,13.1z"/></g><g><polygon fill="#494846" points="26.3 23.9 25.4 23.3 26.1 22.9 27 23.5"/><polygon fill="#0074d1" points="24.6 24.8 23.7 24.3 23.7 19.6 24.6 20.1"/><polygon fill="#3f9ae0" points="24.6 24.8 23.7 24.3 23.7 21.3 24.6 21.9"/><polygon fill="#006cb5" points="28.7 17.7 28.8 22.5 27 23.5 26.3 23.9 24.6 24.8 24.6 20.1"/><polygon fill="#3f9ae0" points="24.6 20.1 23.7 19.6 27.8 17.2 28.7 17.7"/><g><polygon fill="#494846" points="33.1 20 32.2 19.4 32.8 19 33.8 19.6"/><polygon fill="#3db542" points="31.3 21 30.4 20.4 30.4 15.7 31.3 16.2"/><polygon fill="#2c9a2c" points="31.3 21 30.4 20.4 30.4 17.5 31.3 18"/><polygon fill="#6dcb60" points="35.5 13.8 35.5 18.6 33.8 19.6 33.1 20 31.3 21 31.3 16.2"/><polygon fill="#81d672" points="31.3 16.2 30.4 15.7 34.6 13.3 35.5 13.8"/></g><g><polygon fill="#ff6767" points="17.9 28.7 17 28.2 17 23.5 17.9 24"/><polygon fill="#f03a3a" points="17.9 28.7 17 28.2 17 25.2 17.9 25.7"/><polygon fill="#fc7e7e" points="17.9 24 17 23.5 21.1 21.1 22 21.6"/><polygon fill="#f25a5a" points="22 21.6 22 26.3 20.3 27.3 19.6 27.7 17.9 28.7 17.9 24"/></g></g><g><path fill="#d6d4d2" d="M14.5 64.8l-4.5-2.6c-.6-.4-1-1.1-1-2.2l4.5 2.6C13.4 63.6 13.8 64.4 14.5 64.8zM33.4 1.2L38 3.9c-.6-.4-1.5-.3-2.5.2l-4.5-2.6C31.9.9 32.8.9 33.4 1.2z"/><polygon fill="#c4c2c0" points="13.4 62.5 8.9 59.9 8.8 18.3 13.3 20.9"/><polygon fill="#c4c2c0" points="16.8 14.9 12.2 12.3 30.9 1.5 35.5 4.1"/><path fill="#d6d4d2" d="M13.3,20.9l-4.5-2.6c0-2.2,1.5-4.9,3.5-6l4.5,2.6C14.9,16,13.3,18.7,13.3,20.9z"/><path fill="#434240" d="M35.5,4.1C37.4,3,39,3.9,39,6.1l0.1,41.6c0,2.2-1.5,4.9-3.5,6L16.9,64.5c-1.9,1.1-3.5,0.2-3.5-2
													l-0.1-41.6c0-2.2,1.5-4.9,3.5-6L35.5,4.1z"/><path fill="#fff" d="M37.6,48.4c0,0.5-0.4,1.2-0.9,1.5L15.8,62c-0.5,0.3-0.9,0.1-0.9-0.5l-0.1-41.3
											c0-0.5,0.4-1.2,0.9-1.5l21-12.1c0.5-0.3,0.9-0.1,0.9,0.5L37.6,48.4z"/><path fill="#7e8a8c" d="M17.6 14.9c.5-.3.9-.1.9.5 0 .6-.4 1.2-.9 1.5-.5.3-.9.1-.9-.5C16.8 15.9 17.2 15.2 17.6 14.9zM20.7 13.8c.2-.1.3 0 .3.2 0 .2-.1.5-.3.6-.2.1-.3 0-.3-.2C20.3 14.2 20.5 13.9 20.7 13.8zM22.9 12.5c.2-.1.3 0 .3.2 0 .2-.1.5-.3.6-.2.1-.3 0-.3-.2C22.6 12.9 22.7 12.6 22.9 12.5z"/><path fill="#e9e8e6" d="M32,3.6c-0.7-0.4-1.9-0.4-2.6,0c-0.6,0.4-0.7,0.9-0.2,1.3c0.1-0.1,0.1-0.1,0.2-0.2
									c0.7-0.4,1.9-0.4,2.6,0c0.1,0.1,0.2,0.1,0.2,0.2C32.7,4.5,32.6,4,32,3.6z"/><path fill="#434240" d="M29.4,4.8c-0.1,0.1-0.2,0.1-0.2,0.2c0.1,0.1,0.1,0.1,0.2,0.2c0.7,0.4,1.9,0.4,2.6,0
									c0.1,0,0.2-0.1,0.2-0.2v0c-0.1-0.1-0.2-0.1-0.2-0.2C31.3,4.4,30.1,4.4,29.4,4.8z"/><g><path fill="#494846" d="M10.6,21.9l-0.9,0.5c0.2-0.1,0.6-0.1,0.9,0.1l0.9-0.5C11.2,21.7,10.8,21.7,10.6,21.9z"/><path fill="#383736" d="M11.6,25.6l0.9-0.5c0.2-0.1,0.4-0.4,0.4-0.9c0-0.8-0.6-1.9-1.3-2.3l-0.9,0.5
											c0.7,0.4,1.3,1.5,1.3,2.3C12,25.2,11.9,25.5,11.6,25.6z"/><path fill="#494846" d="M11.6,25.6l0.9-0.5c0.2-0.1,0.4-0.4,0.4-0.9L12,24.8C12,25.2,11.9,25.5,11.6,25.6z"/><path fill="#21201f" d="M10.7,22.5c-0.7-0.4-1.3-0.1-1.3,0.8c0,0.8,0.6,1.9,1.3,2.3c0.7,0.4,1.3,0.1,1.3-0.8
											C12,23.9,11.4,22.9,10.7,22.5z"/><g><path fill="#494846" d="M10.6,26.3l-0.9,0.5c0.2-0.1,0.6-0.1,0.9,0.1l0.9-0.5C11.2,26.1,10.8,26.1,10.6,26.3z"/><path fill="#383736" d="M11.6,30l0.9-0.5c0.2-0.1,0.4-0.4,0.4-0.9c0-0.8-0.6-1.9-1.3-2.3l-0.9,0.5c0.7,0.4,1.3,1.5,1.3,2.3
											C12,29.6,11.9,29.9,11.6,30z"/><path fill="#494846" d="M11.6,30l0.9-0.5c0.2-0.1,0.4-0.4,0.4-0.9L12,29.2C12,29.6,11.9,29.9,11.6,30z"/><path fill="#21201f" d="M10.7,26.9c-0.7-0.4-1.3-0.1-1.3,0.8c0,0.8,0.6,1.9,1.3,2.3c0.7,0.4,1.3,0.1,1.3-0.8
											C12,28.3,11.4,27.3,10.7,26.9z"/></g></g><g><polygon fill="#e9e8e6" points="35.4 29.2 17 39.8 17 42.7 35.4 32.1"/><polygon fill="#e9e8e6" points="35.4 41.8 17 52.4 17.1 55.3 35.4 44.7"/><polygon fill="#e9e8e6" points="35.4 35.5 17 46.1 17 49 35.4 38.4"/><polygon fill="#e9e8e6" points="35.4 22.9 17 33.5 17 36.4 35.4 25.8"/></g><g><path fill="#f25a5a" d="M37.5 30.9l-2-1.2c2.7-2.4 3.7-4.5 4.1-5.7l2 1.2C41.2 26.4 40.3 28.5 37.5 30.9zM53 4.5l2 1.2c-1.7-1-4.1-.8-6.8.8l-2-1.2C48.9 3.7 51.3 3.5 53 4.5z"/><path fill="#dd4a4a" d="M41.4,25.1l-2-1.2c-1.3-0.8-2.1-2.3-2.1-4.5c0-4.9,4-11.2,9-14.1l2,1.2c-5,2.9-9,9.2-9,14.1
					C39.3,22.8,40.1,24.3,41.4,25.1z"/><path fill="#cc4848" d="M48.2,6.5c4.9-2.9,9-1.2,9,3.7s-4,11.2-8.9,14.1c-1.3,0.7-2.5,1.2-3.6,1.3c-1.5,1.9-3.4,3.3-4.9,4.2
					c-1.3,0.7-2.1,1.1-2.2,1.1c2.7-2.4,3.7-4.5,4.1-5.7c-1.5-0.7-2.3-2.3-2.3-4.6C39.2,15.7,43.3,9.4,48.2,6.5z"/></g><g><path fill="#b2b0af" d="M43.6 18.4l.6.3c.1 0 .1.1.1.2 0 .2-.1.3-.2.5l-.6-.3c.1-.2.2-.4.2-.5C43.7 18.5 43.7 18.5 43.6 18.4zM44.5 17.3l.6.3c-.1-.1-.3-.1-.5-.1L44 17.2C44.1 17.1 44.3 17.2 44.5 17.3zM41.9 20.3L41.4 20c.2.1.4 0 .7 0 .3-.1.5-.2.8-.3.3-.2.5-.3.7-.5l.6.3c-.1.2-.4.4-.7.5-.3.2-.5.3-.8.3C42.4 20.4 42.1 20.4 41.9 20.3z"/><polygon fill="#b2b0af" points="41.6 21.4 41 21.1 41.4 20 41.9 20.3"/><path fill="#b2b0af" d="M42.9 17.9l-.6-.3c.2 0 .4-.1.7-.2.3-.1.6-.2.8-.2l.6.3c-.2 0-.5.1-.8.2C43.3 17.8 43.1 17.9 42.9 17.9zM44.4 15.2l-.6-.3c.3-.1.5-.1.7-.1l.6.3C44.9 15.1 44.7 15.1 44.4 15.2z"/><path fill="#b2b0af" d="M42.8 17.8l-.6-.3c0 0 .1 0 .1 0l.6.3C42.9 17.9 42.8 17.9 42.8 17.8zM42 19l-.6-.3c0 0-.1 0-.1-.1L42 19C41.9 19 42 19 42 19zM43.6 15.6L43 15.3c.3-.2.6-.3.8-.4l.6.3C44.1 15.3 43.8 15.4 43.6 15.6z"/><path fill="#b2b0af" d="M41.9,18.9l-0.6-0.3c-0.2-0.1-0.2-0.3-0.2-0.7c0-0.3,0.1-0.6,0.2-0.9l0.6,0.3c-0.1,0.3-0.2,0.6-0.2,0.9
					C41.7,18.6,41.7,18.8,41.9,18.9z"/><path fill="#fff" d="M43.6,15.6c0.3-0.2,0.6-0.3,0.8-0.4c0.3-0.1,0.5-0.1,0.7-0.1l-0.3,1.1c-0.4,0-0.8,0.1-1.2,0.3
					c-0.3,0.2-0.5,0.3-0.6,0.5c-0.1,0.2-0.2,0.4-0.2,0.5c0,0.2,0.1,0.3,0.2,0.2c0.2,0,0.4-0.1,0.7-0.2c0.3-0.1,0.6-0.2,0.8-0.2
					c0.2,0,0.4,0,0.6,0.1c0.2,0.1,0.2,0.3,0.2,0.7c0,0.3-0.1,0.6-0.2,0.9c-0.1,0.3-0.4,0.6-0.6,0.9c-0.3,0.3-0.6,0.6-1,0.8
					c-0.4,0.2-0.7,0.3-1,0.4c-0.3,0.1-0.6,0.1-0.8,0l0.3-1.1c0.2,0.1,0.4,0,0.7,0c0.3-0.1,0.5-0.2,0.8-0.3c0.3-0.2,0.5-0.3,0.7-0.5
					c0.1-0.2,0.2-0.4,0.2-0.5c0-0.1,0-0.2-0.1-0.2c-0.1,0-0.2,0-0.3,0c-0.1,0-0.3,0.1-0.5,0.1C43,19,42.7,19,42.5,19.1
					c-0.2,0-0.4,0-0.6-0.1c-0.2-0.1-0.2-0.3-0.2-0.7c0-0.3,0.1-0.6,0.2-0.9c0.1-0.3,0.4-0.6,0.6-0.9C42.8,16.1,43.1,15.8,43.6,15.6z
					"/><path fill="#b2b0af" d="M41.9,17.3L41.3,17c0.1-0.3,0.4-0.6,0.6-0.9c0.3-0.3,0.6-0.6,1-0.8l0.6,0.3c-0.4,0.2-0.8,0.5-1,0.8
					C42.2,16.7,42,17,41.9,17.3z"/><polygon fill="#b2b0af" points="50.1 17 49.5 16.7 49.5 13.6 50.1 14"/><polygon fill="#b2b0af" points="48.5 16 48 15.7 49.6 11.5 50.2 11.8"/><polygon fill="#b2b0af" points="50.2 11.8 49.6 11.5 50.5 11 51 11.4"/><polygon fill="#b2b0af" points="48.3 17.5 47.7 17.2 46.4 15.5 47 15.8"/><polygon fill="#b2b0af" points="46 14.3 45.4 13.9 46.3 13.4 46.9 13.8"/><polygon fill="#b2b0af" points="46 19.4 45.5 19.1 45.4 13.9 46 14.3"/><polygon fill="#fff" points="51 11.4 51.1 16.5 50.1 17 50.1 14 48.8 17.3 48.3 17.5 47 15.8 47 18.8 46 19.4 46 14.3 46.9 13.8 48.5 16 50.2 11.8"/><path fill="#b2b0af" d="M53.8 12.6l.6.3c.1 0 .1.1.1.2 0 .2-.1.3-.2.5l-.6-.3c.1-.2.2-.4.2-.5C53.9 12.7 53.9 12.6 53.8 12.6zM54.6 11.4l.6.3c-.1-.1-.3-.1-.5-.1l-.6-.3C54.3 11.3 54.5 11.3 54.6 11.4z"/><polygon fill="#b2b0af" points="51.8 15.6 51.2 15.2 51.5 14.1 52.1 14.5"/><path fill="#b2b0af" d="M52.1 14.5l-.6-.3c.2.1.4 0 .7 0 .3-.1.5-.2.8-.3.3-.2.5-.3.6-.5l.6.3c-.1.2-.4.4-.6.5-.3.2-.5.3-.8.3C52.5 14.5 52.3 14.5 52.1 14.5zM53.1 12l-.6-.3c.2 0 .4-.1.7-.2.3-.1.6-.2.8-.2l.6.3c-.2 0-.5.1-.8.2C53.5 11.9 53.3 12 53.1 12zM54.6 9.3L54 9c.3-.1.5-.1.7-.1l.6.3C55.1 9.2 54.8 9.3 54.6 9.3z"/><path fill="#b2b0af" d="M53 12l-.6-.3c0 0 .1 0 .1 0l.6.3C53 12 53 12 53 12zM52.1 13.1l-.6-.3c0 0 0 0-.1 0L52.1 13.1C52.1 13.1 52.1 13.1 52.1 13.1zM53.7 9.7l-.6-.3C53.4 9.2 53.7 9.1 54 9l.6.3C54.3 9.4 54 9.5 53.7 9.7z"/><path fill="#fff" d="M53.7,9.7c0.3-0.2,0.6-0.3,0.8-0.4c0.3-0.1,0.5-0.1,0.7-0.1L55,10.3c-0.4,0-0.8,0.1-1.2,0.3
					c-0.3,0.2-0.5,0.3-0.6,0.5c-0.1,0.2-0.2,0.4-0.2,0.5c0,0.2,0.1,0.3,0.2,0.3c0.2,0,0.4-0.1,0.7-0.2c0.3-0.1,0.6-0.2,0.8-0.2
					c0.2,0,0.4,0,0.6,0.1c0.2,0.1,0.2,0.3,0.2,0.7c0,0.3-0.1,0.6-0.2,0.9c-0.1,0.3-0.4,0.6-0.6,0.9c-0.3,0.3-0.6,0.6-1,0.8
					c-0.4,0.2-0.7,0.3-1,0.4c-0.3,0.1-0.6,0.1-0.8,0l0.3-1.1c0.2,0.1,0.4,0,0.7,0c0.3-0.1,0.5-0.2,0.8-0.3c0.3-0.2,0.5-0.3,0.6-0.5
					c0.1-0.2,0.2-0.4,0.2-0.5c0-0.1,0-0.2-0.1-0.2c-0.1,0-0.2,0-0.3,0c-0.1,0-0.3,0.1-0.5,0.1c-0.3,0.1-0.6,0.2-0.8,0.2
					c-0.2,0-0.4,0-0.6-0.1c-0.2-0.1-0.2-0.3-0.2-0.7c0-0.3,0.1-0.6,0.2-0.9c0.1-0.3,0.4-0.6,0.6-0.9C53,10.2,53.3,9.9,53.7,9.7z"/><path fill="#b2b0af" d="M52.1,13.1l-0.6-0.3c-0.2-0.1-0.2-0.3-0.2-0.7c0-0.3,0.1-0.6,0.2-0.9c0.1-0.3,0.4-0.6,0.6-0.9
					c0.3-0.3,0.6-0.6,1-0.8l0.6,0.3c-0.4,0.2-0.8,0.5-1,0.8c-0.3,0.3-0.5,0.6-0.6,0.9c-0.1,0.3-0.2,0.6-0.2,0.9
					C51.8,12.7,51.9,13,52.1,13.1z"/></g><g><polygon fill="#494846" points="26.3 23.9 25.4 23.3 26.1 22.9 27 23.5"/><polygon fill="#0074d1" points="24.6 24.8 23.7 24.3 23.7 19.6 24.6 20.1"/><polygon fill="#3f9ae0" points="24.6 24.8 23.7 24.3 23.7 21.3 24.6 21.9"/><polygon fill="#006cb5" points="28.7 17.7 28.8 22.5 27 23.5 26.3 23.9 24.6 24.8 24.6 20.1"/><polygon fill="#3f9ae0" points="24.6 20.1 23.7 19.6 27.8 17.2 28.7 17.7"/><g><polygon fill="#494846" points="33.1 20 32.2 19.4 32.8 19 33.8 19.6"/><polygon fill="#3db542" points="31.3 21 30.4 20.4 30.4 15.7 31.3 16.2"/><polygon fill="#2c9a2c" points="31.3 21 30.4 20.4 30.4 17.5 31.3 18"/><polygon fill="#6dcb60" points="35.5 13.8 35.5 18.6 33.8 19.6 33.1 20 31.3 21 31.3 16.2"/><polygon fill="#81d672" points="31.3 16.2 30.4 15.7 34.6 13.3 35.5 13.8"/></g><g><polygon fill="#ff6767" points="17.9 28.7 17 28.2 17 23.5 17.9 24"/><polygon fill="#f03a3a" points="17.9 28.7 17 28.2 17 25.2 17.9 25.7"/><polygon fill="#fc7e7e" points="17.9 24 17 23.5 21.1 21.1 22 21.6"/><polygon fill="#f25a5a" points="22 21.6 22 26.3 20.3 27.3 19.6 27.7 17.9 28.7 17.9 24"/></g></g></g></svg>