<svg xmlns="http://www.w3.org/2000/svg" viewBox="0 0 83 83"><path fill="#DFE1E0" d="M47 82.5H3C1.6 82.5.5 81.4.5 80V3C.5 1.6 1.6.5 3 .5h44c1.4 0 2.5 1.1 2.5 2.5v77c0 1.4-1.1 2.5-2.5 2.5z"/><path fill="#505251" d="M44.6 7.1H5.4c-.8 0-1.4.6-1.4 1.3v60.2c0 .7.6 1.3 1.4 1.3h39.2c.8 0 1.4-.6 1.4-1.3V8.4c.1-.7-.6-1.3-1.4-1.3z"/><circle cx="25" cy="76" r="3.2" fill="#BAB9BB"/><path fill="#BAB9BB" d="M29.6 3.5h-9.1c-.3 0-.6.3-.6.6s.3.6.6.6h9.1c.3 0 .6-.3.6-.6s-.3-.6-.6-.6z"/><path fill="#5993CE" d="M82.5 31.2c0 11.7-11.4 21.2-25.4 21.2-5 0-9.7-1.2-13.7-3.4-1.7-.9-11.2 5.3-11.2 5.3s4-11.1 3-12.6c-2.2-3.1-3.4-6.8-3.4-10.7 0-11.7 11.4-21.2 25.4-21.2 13.9.1 25.3 9.6 25.3 21.4z"/><path fill="#FFF" d="M41.4 36.4v-2.5c.5.4.9.7 1.5.9.5.2 1.1.3 1.6.3.3 0 .6 0 .8-.1s.4-.1.6-.2c.2-.1.3-.2.4-.4.1-.1.1-.3.1-.4 0-.2-.1-.4-.2-.6-.1-.2-.3-.3-.5-.5-.2-.1-.5-.3-.8-.4-.3-.1-.6-.3-1-.4-.9-.4-1.5-.8-1.9-1.3s-.6-1.2-.6-1.9c0-.6.1-1.1.3-1.5s.6-.8 1-1c.4-.3.9-.5 1.4-.6s1.1-.2 1.7-.2c.6 0 1.1 0 1.5.1s.9.2 1.2.3v2.3l-.6-.3c-.2-.1-.4-.2-.7-.2-.2-.1-.5-.1-.7-.1h-.7c-.3 0-.5 0-.8.1-.2.1-.4.1-.6.2-.2.1-.3.2-.4.4v.2c0 .2 0 .4.1.5s.2.3.4.4.4.3.7.4.6.3.9.4l1.2.6c.4.2.7.4.9.7.3.3.4.6.6.9.1.3.2.7.2 1.2 0 .6-.1 1.1-.4 1.6s-.6.8-1 1c-.4.3-.9.5-1.4.6-.5.1-1.1.1-1.7.1s-1.2-.1-1.7-.2c-.6 0-1-.2-1.4-.4zM63.5 36.8H61v-6.7c0-.7 0-1.5.1-2.4H61c-.1.7-.2 1.2-.3 1.5l-2.6 7.6H56l-2.7-7.5c-.1-.2-.2-.7-.3-1.6.1 1.1.1 2.1.1 2.9v6.2h-2.3V25.7h3.7l2.3 6.6c.2.5.3 1.1.4 1.6.1-.6.3-1.2.4-1.6l2.3-6.6h3.6v11.1zM65.5 36.4v-2.5c.5.4.9.7 1.5.9.5.2 1.1.3 1.6.3.3 0 .6 0 .8-.1.2-.1.4-.1.6-.2.2-.1.3-.2.4-.4.1-.1.1-.3.1-.4 0-.2-.1-.4-.2-.6-.1-.2-.3-.3-.5-.5-.2-.1-.5-.3-.8-.4-.3-.1-.6-.3-1-.4-.9-.4-1.5-.8-1.9-1.3s-.6-1.2-.6-1.9c0-.6.1-1.1.3-1.5.2-.4.6-.8 1-1 .4-.3.9-.5 1.4-.6s1.1-.2 1.7-.2 1.1 0 1.5.1.9.2 1.2.3v2.3L72 28c-.2-.1-.4-.2-.7-.2-.2-.1-.5-.1-.7-.1h-.7c-.3 0-.5 0-.8.1-.2.1-.4.1-.6.2s-.3.2-.4.4c-.1.1-.1.3-.1.5s0 .4.1.5.2.3.4.4c.2.1.4.3.7.4.3.1.6.3.9.4l1.2.6c.4.2.7.4.9.7.3.3.4.6.6.9.1.3.2.7.2 1.2 0 .6-.1 1.1-.4 1.6s-.6.8-1 1c-.4.3-.9.5-1.4.6-.3-.2-.9-.2-1.5-.2s-1.2-.1-1.7-.2c-.6 0-1.1-.2-1.5-.4z"/></svg>